<svg width="15" height="17" viewBox="0 0 15 17" fill="none" xmlns="http://www.w3.org/2000/svg">
<path d="M7.5 13.9091C7.64834 13.9091 7.79334 13.8638 7.91668 13.7789C8.04002 13.694 8.13614 13.5733 8.19291 13.4321C8.24968 13.2909 8.26453 13.1355 8.23559 12.9856C8.20665 12.8357 8.13522 12.698 8.03033 12.59C7.92544 12.4819 7.7918 12.4083 7.64632 12.3785C7.50083 12.3487 7.35003 12.364 7.21299 12.4225C7.07594 12.4809 6.95881 12.58 6.8764 12.7071C6.79399 12.8341 6.75 12.9835 6.75 13.1364C6.75 13.3413 6.82902 13.5378 6.96967 13.6828C7.11032 13.8277 7.30109 13.9091 7.5 13.9091ZM11.25 13.9091C11.3983 13.9091 11.5433 13.8638 11.6667 13.7789C11.79 13.694 11.8861 13.5733 11.9429 13.4321C11.9997 13.2909 12.0145 13.1355 11.9856 12.9856C11.9566 12.8357 11.8852 12.698 11.7803 12.59C11.6754 12.4819 11.5418 12.4083 11.3963 12.3785C11.2508 12.3487 11.1 12.364 10.963 12.4225C10.8259 12.4809 10.7088 12.58 10.6264 12.7071C10.544 12.8341 10.5 12.9835 10.5 13.1364C10.5 13.3413 10.579 13.5378 10.7197 13.6828C10.8603 13.8277 11.0511 13.9091 11.25 13.9091ZM11.25 10.8182C11.3983 10.8182 11.5433 10.7729 11.6667 10.688C11.79 10.603 11.8861 10.4824 11.9429 10.3412C11.9997 10.2 12.0145 10.0446 11.9856 9.8947C11.9566 9.74481 11.8852 9.60712 11.7803 9.49905C11.6754 9.39099 11.5418 9.31739 11.3963 9.28757C11.2508 9.25776 11.1 9.27306 10.963 9.33155C10.8259 9.39003 10.7088 9.48908 10.6264 9.61615C10.544 9.74322 10.5 9.89262 10.5 10.0455C10.5 10.2504 10.579 10.4469 10.7197 10.5919C10.8603 10.7368 11.0511 10.8182 11.25 10.8182ZM7.5 10.8182C7.64834 10.8182 7.79334 10.7729 7.91668 10.688C8.04002 10.603 8.13614 10.4824 8.19291 10.3412C8.24968 10.2 8.26453 10.0446 8.23559 9.8947C8.20665 9.74481 8.13522 9.60712 8.03033 9.49905C7.92544 9.39099 7.7918 9.31739 7.64632 9.28757C7.50083 9.25776 7.35003 9.27306 7.21299 9.33155C7.07594 9.39003 6.95881 9.48908 6.8764 9.61615C6.79399 9.74322 6.75 9.89262 6.75 10.0455C6.75 10.2504 6.82902 10.4469 6.96967 10.5919C7.11032 10.7368 7.30109 10.8182 7.5 10.8182ZM12.75 1.54545H12V0.772727C12 0.567787 11.921 0.371241 11.7803 0.226327C11.6397 0.0814121 11.4489 0 11.25 0C11.0511 0 10.8603 0.0814121 10.7197 0.226327C10.579 0.371241 10.5 0.567787 10.5 0.772727V1.54545H4.5V0.772727C4.5 0.567787 4.42098 0.371241 4.28033 0.226327C4.13968 0.0814121 3.94891 0 3.75 0C3.55109 0 3.36032 0.0814121 3.21967 0.226327C3.07902 0.371241 3 0.567787 3 0.772727V1.54545H2.25C1.65326 1.54545 1.08097 1.78969 0.65901 2.22443C0.237053 2.65918 0 3.24882 0 3.86364V14.6818C0 15.2966 0.237053 15.8863 0.65901 16.321C1.08097 16.7558 1.65326 17 2.25 17H12.75C13.3467 17 13.919 16.7558 14.341 16.321C14.7629 15.8863 15 15.2966 15 14.6818V3.86364C15 3.24882 14.7629 2.65918 14.341 2.22443C13.919 1.78969 13.3467 1.54545 12.75 1.54545ZM13.5 14.6818C13.5 14.8868 13.421 15.0833 13.2803 15.2282C13.1397 15.3731 12.9489 15.4545 12.75 15.4545H2.25C2.05109 15.4545 1.86032 15.3731 1.71967 15.2282C1.57902 15.0833 1.5 14.8868 1.5 14.6818V7.72727H13.5V14.6818ZM13.5 6.18182H1.5V3.86364C1.5 3.6587 1.57902 3.46215 1.71967 3.31724C1.86032 3.17232 2.05109 3.09091 2.25 3.09091H3V3.86364C3 4.06858 3.07902 4.26512 3.21967 4.41004C3.36032 4.55495 3.55109 4.63636 3.75 4.63636C3.94891 4.63636 4.13968 4.55495 4.28033 4.41004C4.42098 4.26512 4.5 4.06858 4.5 3.86364V3.09091H10.5V3.86364C10.5 4.06858 10.579 4.26512 10.7197 4.41004C10.8603 4.55495 11.0511 4.63636 11.25 4.63636C11.4489 4.63636 11.6397 4.55495 11.7803 4.41004C11.921 4.26512 12 4.06858 12 3.86364V3.09091H12.75C12.9489 3.09091 13.1397 3.17232 13.2803 3.31724C13.421 3.46215 13.5 3.6587 13.5 3.86364V6.18182ZM3.75 10.8182C3.89834 10.8182 4.04334 10.7729 4.16668 10.688C4.29001 10.603 4.38614 10.4824 4.44291 10.3412C4.49968 10.2 4.51453 10.0446 4.48559 9.8947C4.45665 9.74481 4.38522 9.60712 4.28033 9.49905C4.17544 9.39099 4.0418 9.31739 3.89632 9.28757C3.75083 9.25776 3.60003 9.27306 3.46299 9.33155C3.32594 9.39003 3.20881 9.48908 3.1264 9.61615C3.04399 9.74322 3 9.89262 3 10.0455C3 10.2504 3.07902 10.4469 3.21967 10.5919C3.36032 10.7368 3.55109 10.8182 3.75 10.8182ZM3.75 13.9091C3.89834 13.9091 4.04334 13.8638 4.16668 13.7789C4.29001 13.694 4.38614 13.5733 4.44291 13.4321C4.49968 13.2909 4.51453 13.1355 4.48559 12.9856C4.45665 12.8357 4.38522 12.698 4.28033 12.59C4.17544 12.4819 4.0418 12.4083 3.89632 12.3785C3.75083 12.3487 3.60003 12.364 3.46299 12.4225C3.32594 12.4809 3.20881 12.58 3.1264 12.7071C3.04399 12.8341 3 12.9835 3 13.1364C3 13.3413 3.07902 13.5378 3.21967 13.6828C3.36032 13.8277 3.55109 13.9091 3.75 13.9091Z" fill="url(#paint0_linear_269_1256)"/>
<defs>
<linearGradient id="paint0_linear_269_1256" x1="12.8361" y1="0.763768" x2="2.11056" y2="16.981" gradientUnits="userSpaceOnUse">
<stop stop-color="#FE9B04"/>
<stop offset="1" stop-color="#F7B60F"/>
</linearGradient>
</defs>
</svg>
