<svg width="24" height="22" viewBox="0 0 24 22" fill="none" xmlns="http://www.w3.org/2000/svg">
<path d="M1.59817 11.3931C2.05479 11.3931 2.47336 11.3931 2.92998 11.3931C3.1583 11.3931 3.27245 11.285 3.1583 11.1407C2.96804 10.8522 3.50076 10.3472 2.92998 10.3112C2.05479 10.2391 1.1796 10.2751 0.304414 10.3112C0.0380518 10.3112 0 10.203 0 9.98659C0.570776 5.04561 4.07154 1.25872 9.09437 0.248887C15.7154 -1.08554 21.9178 3.09807 22.9452 9.15708C22.9833 9.30134 22.9833 9.48167 23.0213 9.62594C23.0974 10.3112 23.0974 10.3112 22.3744 10.3112C21.6514 10.3112 20.9285 10.3112 20.2435 10.3112C19.9772 10.3112 19.9011 10.3833 19.9391 10.5997C19.9391 10.6718 19.9772 10.78 19.9772 10.8522C19.9772 11.3931 19.9772 11.3931 20.5479 11.3931C21.309 11.3931 22.07 11.3931 22.793 11.3931C23.0594 11.3931 23.0974 11.4653 23.0974 11.7177C22.5266 16.6227 19.0259 20.4456 14.003 21.4554C7.38204 22.7899 1.1796 18.6063 0.152207 12.5472C0.114155 12.403 0.114155 12.2227 0.0761034 12.0784C-7.3712e-08 11.3931 2.26806e-07 11.3931 0.722983 11.3931C1.0274 11.3931 1.29376 11.3931 1.59817 11.3931ZM12.1766 6.59643C12.1766 5.47839 12.1766 4.3243 12.1766 3.20626C12.1766 3.062 12.1385 2.91774 12.4049 2.95381C13.7367 3.1702 14.9924 3.53085 16.1339 4.2161C16.4003 4.36036 16.6286 4.72102 16.895 4.64889C17.1613 4.57676 17.3135 4.25217 17.5799 4.07184C17.8843 3.85544 17.8843 3.71118 17.5419 3.49479C14.003 0.970199 9.09437 0.970199 5.55556 3.49479C5.28919 3.71118 5.17504 3.81938 5.5175 4.07184C5.74581 4.2161 5.89802 4.43249 6.08828 4.61282C6.20244 4.72102 6.24049 4.72102 6.39269 4.61282C7.6484 3.67512 9.05632 3.20626 10.6164 2.95381C10.8828 2.91774 10.9589 2.95381 10.9589 3.20626C10.9589 5.4784 10.9589 7.71446 10.9589 9.98659C10.9589 10.2391 10.8828 10.3112 10.6164 10.3112C8.98021 10.3112 7.30594 10.3112 5.66971 10.3112C4.87062 10.3112 4.87062 10.3112 4.87062 11.0686C4.87062 11.3571 4.94673 11.4292 5.25114 11.4292C7.03957 11.4292 8.82801 11.4292 10.6164 11.4292C10.8828 11.4292 10.997 11.4653 10.997 11.7538C10.9589 12.6194 10.997 13.4489 10.997 14.3145C10.997 15.721 10.997 17.1276 10.997 18.5341C10.997 18.6784 11.035 18.8227 10.7686 18.7866C9.43683 18.5702 8.18113 18.2095 7.03957 17.5243C6.77321 17.38 6.5449 17.0194 6.27854 17.0915C6.01218 17.1636 5.85997 17.4882 5.59361 17.6686C5.28919 17.885 5.28919 18.0292 5.63166 18.2456C9.17047 20.7702 14.0791 20.7702 17.618 18.2456C17.8843 18.0292 17.9985 17.921 17.656 17.6686C17.4277 17.5243 17.2755 17.3079 17.0852 17.1276C16.9711 17.0194 16.933 17.0194 16.7808 17.1276C15.5251 18.0653 14.1172 18.5341 12.5571 18.7866C12.2907 18.8227 12.2146 18.7866 12.2146 18.5341C12.2146 16.262 12.2146 14.0259 12.2146 11.7538C12.2146 11.5013 12.2907 11.4292 12.5571 11.4292C14.1933 11.4292 15.8676 11.4292 17.5038 11.4292C18.3029 11.4292 18.3029 11.4292 18.3029 10.6718C18.3029 10.3833 18.2268 10.3112 17.9224 10.3112C16.172 10.3112 14.3836 10.3112 12.5951 10.3112C12.2907 10.3112 12.1766 10.2391 12.1766 9.95053C12.1766 8.79643 12.1766 7.6784 12.1766 6.59643ZM3.72907 7.5702C3.95738 7.24561 4.18569 6.99315 4.37595 6.70462C4.56621 6.4161 5.02283 6.12758 4.94673 5.83905C4.87062 5.51446 4.45206 5.29807 4.18569 5.04561C4.18569 5.04561 4.14764 5.04561 4.14764 5.00954C4.03349 4.90135 3.95738 4.93741 3.88128 5.04561C2.96804 6.12758 2.32116 7.31774 1.97869 8.68823C2.47336 8.68823 2.92999 8.68823 3.42466 8.68823C5.28919 8.68823 7.11568 8.68823 8.98021 8.68823C9.09437 8.68823 9.32268 8.79643 9.32268 8.5079C9.32268 7.31774 9.32268 6.12758 9.32268 4.90135C8.5997 5.15381 7.99087 5.4784 7.38204 5.94725C7.80061 6.01938 8.29528 5.80299 8.44749 6.05544C8.63775 6.3079 8.48554 6.74069 8.52359 7.10135C8.52359 7.17348 8.52359 7.28167 8.52359 7.3538C8.56164 7.53413 8.44749 7.5702 8.25723 7.5702C6.77321 7.5702 5.28919 7.5702 3.72907 7.5702ZM13.8508 4.90135C13.8508 6.05544 13.8508 7.17348 13.8508 8.32757C13.8508 8.6161 13.9269 8.68823 14.2314 8.68823C16.4384 8.68823 18.6073 8.68823 20.8143 8.68823C20.9285 8.68823 21.0426 8.68823 21.1568 8.65217C20.8143 7.28167 20.1674 6.12758 19.2922 5.04561C19.14 4.86528 19.0639 4.90135 18.9498 5.04561C18.7595 5.262 18.5312 5.44233 18.3029 5.65872C18.1126 5.80299 18.1126 5.91118 18.2648 6.09151C18.6454 6.56036 18.9878 7.06528 19.4064 7.60626C17.8463 7.60626 16.3623 7.60626 14.8782 7.60626C14.6499 7.60626 14.6119 7.53413 14.6119 7.3538C14.6119 6.99315 14.6499 6.63249 14.6119 6.27184C14.6119 6.01938 14.688 5.98331 14.9163 5.98331C15.1826 5.98331 15.449 5.98331 15.7915 5.98331C15.1826 5.47839 14.5738 5.15381 13.8508 4.90135ZM3.72907 14.0981C5.28919 14.0981 6.77321 14.0981 8.25723 14.0981C8.44749 14.0981 8.52359 14.1341 8.52359 14.3145C8.52359 14.7112 8.52359 15.0718 8.52359 15.4686C8.52359 15.685 8.40944 15.721 8.25723 15.721C7.99087 15.721 7.72451 15.721 7.34399 15.721C8.02892 16.1899 8.5997 16.5505 9.32268 16.7669C9.32268 15.5768 9.32268 14.4227 9.32268 13.2686C9.32268 13.0161 9.24658 12.98 9.01827 12.98C8.40944 12.98 7.83866 12.98 7.22983 12.98C5.5175 12.98 3.76712 12.98 2.01674 12.98C2.32116 14.1702 2.85388 15.2161 3.57686 16.1899C4.03349 16.803 4.03349 16.803 4.56621 16.2981C4.68037 16.1899 4.79452 16.0817 4.90868 15.9735C5.06088 15.8653 5.06088 15.7571 4.94673 15.6128C4.49011 15.144 4.14764 14.6391 3.72907 14.0981ZM19.3683 14.0981C19.102 14.4227 18.9117 14.7112 18.7215 14.9636C18.5312 15.2522 18.1126 15.5407 18.1507 15.7931C18.1887 16.0817 18.6073 16.2981 18.8737 16.5505L18.9117 16.5866C19.0259 16.7309 19.102 16.7309 19.2161 16.5866C19.4444 16.2981 19.6728 16.0095 19.9011 15.685C20.4718 14.8554 20.8904 13.9538 21.1187 12.944C18.7595 12.944 16.4003 12.944 14.0791 12.944C13.8128 12.944 13.8128 13.0522 13.8128 13.2325C13.8128 14.0981 13.8128 14.9636 13.8128 15.8292C13.8128 16.1177 13.8128 16.4063 13.8128 16.7309C14.5358 16.4784 15.1446 16.1538 15.7915 15.685C15.411 15.685 15.1065 15.685 14.8402 15.685C14.688 15.685 14.6119 15.6489 14.6119 15.4686C14.6119 15.0718 14.6119 14.6751 14.6119 14.2784C14.6119 14.1341 14.6499 14.062 14.8402 14.062C16.3242 14.0981 17.8082 14.0981 19.3683 14.0981Z" fill="#F6E9D6"/>
</svg>
