<svg width="42" height="43" viewBox="0 0 42 43" fill="none" xmlns="http://www.w3.org/2000/svg">
<path d="M37 20.5H34V12.5C34 10.3 32.2 8.5 30 8.5H22V5.5C22 2.74 19.76 0.5 17 0.5C14.24 0.5 12 2.74 12 5.5V8.5H4C1.8 8.5 0.02 10.3 0.02 12.5V20.1H3C5.98 20.1 8.4 22.52 8.4 25.5C8.4 28.48 5.98 30.9 3 30.9H0V38.5C0 40.7 1.8 42.5 4 42.5H11.6V39.5C11.6 36.52 14.02 34.1 17 34.1C19.98 34.1 22.4 36.52 22.4 39.5V42.5H30C32.2 42.5 34 40.7 34 38.5V30.5H37C39.76 30.5 42 28.26 42 25.5C42 22.74 39.76 20.5 37 20.5Z" fill="url(#paint0_linear_269_708)"/>
<defs>
<linearGradient id="paint0_linear_269_708" x1="35.941" y1="2.38696" x2="10.8707" y2="45.3481" gradientUnits="userSpaceOnUse">
<stop stop-color="#FE9B04"/>
<stop offset="1" stop-color="#F7B60F"/>
</linearGradient>
</defs>
</svg>
