<svg width="44" height="43" viewBox="0 0 44 43" fill="none" xmlns="http://www.w3.org/2000/svg">
<path d="M22 8.3468C14.4359 8.3468 8.31818 14.4869 8.31818 22.0787H12.2273C12.2273 16.6644 16.6055 12.2702 22 12.2702C27.3945 12.2702 31.7727 16.6644 31.7727 22.0787H35.6818C35.6818 14.4869 29.5641 8.3468 22 8.3468ZM23.9545 26.571C25.6745 25.8059 26.8864 24.0993 26.8864 22.0787C26.8864 19.3716 24.6973 17.1745 22 17.1745C19.3027 17.1745 17.1136 19.3716 17.1136 22.0787C17.1136 24.0796 18.3255 25.8059 20.0455 26.571V33.0446L13.3805 39.734L16.1364 42.5L22 36.6149L27.8636 42.5L30.6195 39.734L23.9545 33.0446V26.571ZM22 0.5C10.1359 0.5 0.5 10.1712 0.5 22.0787H4.40909C4.40909 12.3291 12.2859 4.4234 22 4.4234C31.7141 4.4234 39.5909 12.3291 39.5909 22.0787H43.5C43.5 10.1712 33.8641 0.5 22 0.5Z" fill="url(#paint0_linear_269_730)"/>
<defs>
<linearGradient id="paint0_linear_269_730" x1="37.2967" y1="2.38696" x2="12.5201" y2="45.8557" gradientUnits="userSpaceOnUse">
<stop stop-color="#FE9B04"/>
<stop offset="1" stop-color="#F7B60F"/>
</linearGradient>
</defs>
</svg>
