<svg width="46" height="46" viewBox="0 0 46 46" fill="none" xmlns="http://www.w3.org/2000/svg">
<path d="M12.5455 20.9091H0V25.0909H12.5455V20.9091ZM17.0827 14.1345L12.65 9.70182L9.70182 12.65L14.1345 17.0827L17.0827 14.1345ZM25.0909 0H20.9091V12.5455H25.0909V0ZM36.2982 12.65L33.35 9.70182L28.9173 14.1345L31.8655 17.0827L36.2982 12.65ZM33.4545 20.9091V25.0909H46V20.9091H33.4545ZM23 16.7273C19.5291 16.7273 16.7273 19.5291 16.7273 23C16.7273 26.4709 19.5291 29.2727 23 29.2727C26.4709 29.2727 29.2727 26.4709 29.2727 23C29.2727 19.5291 26.4709 16.7273 23 16.7273ZM28.9173 31.8655L33.35 36.2982L36.2982 33.35L31.8655 28.9173L28.9173 31.8655ZM9.70182 33.35L12.65 36.2982L17.0827 31.8655L14.1345 28.9173L9.70182 33.35ZM20.9091 46H25.0909V33.4545H20.9091V46Z" fill="url(#paint0_linear_269_714)"/>
<defs>
<linearGradient id="paint0_linear_269_714" x1="39.3639" y1="2.06667" x2="11.906" y2="49.1193" gradientUnits="userSpaceOnUse">
<stop stop-color="#FE9B04"/>
<stop offset="1" stop-color="#F7B60F"/>
</linearGradient>
</defs>
</svg>
